<svg xmlns="http://www.w3.org/2000/svg" width="51.269" height="51.269" viewBox="0 0 51.269 51.269">
  <g id="Avatar" transform="translate(-203 -334.635)">
    <g id="Path_840" data-name="Path 840" transform="translate(203 334.635)" fill="none">
      <path d="M25.635,0A25.635,25.635,0,1,1,0,25.635,25.635,25.635,0,0,1,25.635,0Z" stroke="none"/>
      <path d="M 25.63458251953125 2.000003814697266 C 22.44305229187012 2.000003814697266 19.34805297851562 2.624622344970703 16.43555068969727 3.856502532958984 C 13.62140274047852 5.046791076660156 11.09361267089844 6.751201629638672 8.922412872314453 8.922412872314453 C 6.751201629638672 11.09361267089844 5.046791076660156 13.62140274047852 3.856502532958984 16.43555068969727 C 2.624622344970703 19.34805297851562 2.000003814697266 22.44305229187012 2.000003814697266 25.63458251953125 C 2.000003814697266 28.82611274719238 2.624622344970703 31.92111206054688 3.856502532958984 34.83361053466797 C 5.046791076660156 37.64776229858398 6.751201629638672 40.17555236816406 8.922412872314453 42.34675216674805 C 11.09361267089844 44.51796340942383 13.62140274047852 46.22237396240234 16.43555068969727 47.41266250610352 C 19.34805297851562 48.6445426940918 22.44305229187012 49.26916122436523 25.63458251953125 49.26916122436523 C 28.82611274719238 49.26916122436523 31.92111206054688 48.6445426940918 34.83361053466797 47.41266250610352 C 37.64776229858398 46.22237396240234 40.17555236816406 44.51796340942383 42.34675216674805 42.34675216674805 C 44.51796340942383 40.17555236816406 46.22237396240234 37.64776229858398 47.41266250610352 34.83361053466797 C 48.6445426940918 31.92111206054688 49.26916122436523 28.82611274719238 49.26916122436523 25.63458251953125 C 49.26916122436523 22.44305229187012 48.6445426940918 19.34805297851562 47.41266250610352 16.43555068969727 C 46.22237396240234 13.62140274047852 44.51796340942383 11.09361267089844 42.34675216674805 8.922412872314453 C 40.17555236816406 6.751201629638672 37.64776229858398 5.046791076660156 34.83361053466797 3.856502532958984 C 31.92111206054688 2.624622344970703 28.82611274719238 2.000003814697266 25.63458251953125 2.000003814697266 M 25.63458251953125 3.814697265625e-06 C 39.79217147827148 3.814697265625e-06 51.26916122436523 11.47699356079102 51.26916122436523 25.63458251953125 C 51.26916122436523 39.79217147827148 39.79217147827148 51.26916122436523 25.63458251953125 51.26916122436523 C 11.47699356079102 51.26916122436523 3.814697265625e-06 39.79217147827148 3.814697265625e-06 25.63458251953125 C 3.814697265625e-06 11.47699356079102 11.47699356079102 3.814697265625e-06 25.63458251953125 3.814697265625e-06 Z" stroke="none" fill="#01b1c1"/>
    </g>
    <path id="Path_839" data-name="Path 839" d="M34.93,22.469h-1.7l-.387-1.17a6.844,6.844,0,0,0,4.527-6.426V11.836A6.844,6.844,0,0,0,30.532,5h-.76a6.841,6.841,0,0,0-6.836,6.836v3.038A6.841,6.841,0,0,0,27.46,21.3l-.387,1.17h-1.7A7.486,7.486,0,0,0,18,30.046v6.775a2.3,2.3,0,0,0,2.229,2.358H40.076a2.3,2.3,0,0,0,2.229-2.358V30.046A7.488,7.488,0,0,0,34.93,22.469ZM29.773,6.519h.76a5.3,5.3,0,0,1,1.132.125,5.321,5.321,0,0,1-5.309,5.191h-1.9A5.323,5.323,0,0,1,29.773,6.519Zm-5.317,8.355V13.355h1.9a6.844,6.844,0,0,0,6.8-6.137,5.315,5.315,0,0,1,2.7,4.618v3.038a5.323,5.323,0,0,1-5.317,5.317h-.76A5.323,5.323,0,0,1,24.456,14.874ZM29.393,37.66H20.229a.784.784,0,0,1-.71-.839V30.046a6.041,6.041,0,0,1,4.177-5.8v4.033a2.664,2.664,0,0,0-1.9,2.548v1.9a.76.76,0,1,0,1.519,0v-1.9a1.139,1.139,0,1,1,2.279,0v1.9a.76.76,0,1,0,1.519,0v-1.9a2.668,2.668,0,0,0-1.9-2.548V24c.053,0,.1-.008.16-.008h1.462a.8.8,0,0,0,.118.156l2.438,2.438ZM28.36,23.4l.585-1.751a6.587,6.587,0,0,0,.828.057h.76a6.576,6.576,0,0,0,.824-.057l.585,1.751-1.789,1.789ZM40.786,36.821a.784.784,0,0,1-.71.839H30.912V26.582l2.434-2.438a.581.581,0,0,0,.118-.156H34.93c.053,0,.106.008.16.008v4.28a2.658,2.658,0,1,0,1.519,0V24.243a6.045,6.045,0,0,1,4.177,5.8Zm-4.937-7.136a1.139,1.139,0,1,1-1.139,1.139A1.14,1.14,0,0,1,35.849,29.685Z" transform="translate(198.803 338.545)" fill="#01b1c1"/>
  </g>
</svg>
